<svg width="444" height="250" viewBox="0 0 444 250" fill="none" xmlns="http://www.w3.org/2000/svg">
<g filter="url(#filter0_dd)">
<path d="M41.8197 86.8424C37.5455 80.194 39.7179 71.4915 46.6723 67.4048L122.363 22.9275C129.318 18.8409 138.42 20.9181 142.695 27.5668L148.828 37.1049C153.102 43.7535 150.929 52.4562 143.974 56.5425L68.2834 101.02C61.3288 105.106 52.2261 103.03 47.9519 96.3802L41.8197 86.8424Z" fill="#06A7D0"/>
</g>
<g filter="url(#filter1_dd)">
<path d="M123.37 141.078C123.353 149.24 116.978 155.843 109.131 155.825L46.2003 155.688C31.1089 155.654 26.4664 134.408 40.0624 127.595L76.9945 109.088C87.7178 103.715 87.717 87.8318 76.9937 82.4592L40.8574 64.3547C27.2311 57.5277 31.9294 36.228 47.0545 36.261L109.372 36.3971C117.219 36.4143 123.569 43.045 123.552 51.207L123.37 141.078Z" fill="#0699BE"/>
</g>
<path d="M178.193 125.333C202.405 126.667 218.795 127.333 227.367 127.333C229.4 127.333 230.991 126.755 232.139 125.6C233.375 124.355 233.994 122.711 233.994 120.666V108.667H203.509C194.231 108.667 187.471 106.578 183.23 102.4C179.076 98.1335 177 91.3332 177 81.9999V77.9998C177 68.6666 179.076 61.9111 183.23 57.7334C187.471 53.4666 194.231 51.3334 203.509 51.3334H250.033V69.9999H208.811C203.509 69.9999 200.858 72.6665 200.858 77.9998V80.6666C200.858 85.9999 203.509 88.6665 208.811 88.6665H232.669C241.328 88.6665 247.691 90.711 251.755 94.7997C255.82 98.8889 257.852 105.289 257.852 113.999V120.666C257.852 129.377 255.82 135.778 251.755 139.867C247.691 143.955 241.328 146 232.669 146C228.162 146 223.39 145.911 218.355 145.733L206.159 145.2C197.146 144.755 187.824 144.133 178.193 143.333V125.333ZM266.237 124.666H290.095V144.666H266.237V124.666ZM362.142 76.6666C362.142 71.3333 359.491 68.6666 354.189 68.6666H331.657C326.354 68.6666 323.704 71.3333 323.704 76.6666V119.334C323.704 124.666 326.354 127.333 331.657 127.333H354.189C359.491 127.333 362.142 124.666 362.142 119.334V76.6666ZM386 119.334C386 128.667 383.879 135.467 379.638 139.733C375.484 143.911 368.769 146 359.491 146H326.354C317.077 146 310.316 143.911 306.075 139.733C301.922 135.467 299.846 128.667 299.846 119.334V76.6666C299.846 67.3333 301.922 60.5777 306.075 56.4C310.316 52.1334 317.077 50 326.354 50H359.491C368.769 50 375.484 52.1334 379.638 56.4C383.879 60.5777 386 67.3333 386 76.6666V119.334Z" fill="white"/>
<path d="M72.6344 204.666C72.6344 203.209 72.0061 202.095 70.7494 201.324C69.4929 200.536 67.2311 199.713 63.964 198.856C60.6968 197.982 58.1104 197.125 56.2045 196.285C51.0106 193.988 48.4137 190.895 48.4137 187.005C48.4137 184.983 49.1049 183.183 50.4871 181.606C51.8902 180.013 53.8903 178.771 56.4873 177.879C59.1052 176.988 62.0371 176.542 65.2834 176.542C68.5505 176.542 71.4616 177.031 74.0167 178.007C76.5716 178.967 78.5508 180.33 79.9539 182.095C81.3781 183.86 82.0902 185.866 82.0902 188.111H72.6658C72.6658 186.397 72.0061 185.068 70.6866 184.126C69.3673 183.165 67.5137 182.687 65.1262 182.687C62.8225 182.687 61.0319 183.089 59.7544 183.894C58.4768 184.682 57.838 185.728 57.838 187.03C57.838 188.247 58.5816 189.268 60.0685 190.09C61.5765 190.912 63.7859 191.683 66.697 192.404C72.0584 193.723 75.9643 195.36 78.4147 197.314C80.8651 199.267 82.0902 201.701 82.0902 204.615C82.0902 207.854 80.5927 210.398 77.5978 212.25C74.6031 214.082 70.5714 215 65.5032 215C61.9849 215 58.7806 214.477 55.8905 213.432C53.0002 212.369 50.7907 210.921 49.2619 209.087C47.754 207.253 47 205.128 47 202.712H56.4559C56.4559 206.842 59.4716 208.908 65.5032 208.908C67.7441 208.908 69.4929 208.539 70.7494 207.802C72.0061 207.048 72.6344 206.002 72.6344 204.666ZM107.599 214.486C107.18 213.818 106.876 212.986 106.688 211.993C104.489 213.997 101.63 215 98.1115 215C94.7816 215 92.0171 214.212 89.8182 212.635C87.6401 211.058 86.5511 209.07 86.5511 206.67C86.5511 203.723 87.8809 201.461 90.5407 199.884C93.2215 198.308 97.0854 197.511 102.133 197.493H106.311V195.9C106.311 194.614 105.902 193.586 105.086 192.815C104.29 192.043 103.023 191.658 101.284 191.658C99.7557 191.658 98.5515 191.958 97.6718 192.558C96.8132 193.157 96.3838 193.98 96.3838 195.025H87.3051C87.3051 193.414 87.9123 191.924 89.127 190.553C90.3418 189.181 92.0591 188.111 94.279 187.34C96.499 186.551 98.9913 186.156 101.756 186.156C105.944 186.156 109.265 187.023 111.714 188.752C114.185 190.467 115.421 192.883 115.421 196.003V208.059C115.442 210.698 115.893 212.695 116.772 214.049V214.486H107.599ZM100.091 209.319C101.431 209.319 102.667 209.078 103.798 208.598C104.929 208.102 105.766 207.442 106.311 206.619V201.838H102.918C98.3733 201.838 95.9544 203.123 95.6612 205.694L95.6298 206.131C95.6298 207.056 96.0278 207.819 96.8236 208.419C97.6195 209.018 98.7085 209.319 100.091 209.319ZM131.977 214.486H122.866V175H131.977V214.486ZM155.129 215C150.145 215 146.082 213.749 142.94 211.247C139.82 208.745 138.259 205.412 138.259 201.246V200.527C138.259 197.734 138.919 195.239 140.238 193.046C141.559 190.836 143.421 189.139 145.831 187.956C148.26 186.757 151.024 186.156 154.124 186.156C158.773 186.156 162.428 187.356 165.088 189.755C167.768 192.155 169.109 195.557 169.109 199.961V202.995H147.464C147.757 204.811 148.637 206.268 150.103 207.365C151.589 208.462 153.464 209.011 155.727 209.011C159.224 209.011 161.957 207.973 163.925 205.899L168.386 209.987C167.025 211.564 165.181 212.798 162.857 213.689C160.532 214.563 157.957 215 155.129 215ZM154.092 192.172C152.291 192.172 150.825 192.668 149.694 193.662C148.584 194.657 147.873 196.079 147.559 197.931H160.187V197.339C160.144 195.694 159.601 194.426 158.553 193.535C157.507 192.626 156.019 192.172 154.092 192.172ZM192.701 206.799C192.701 205.891 192.146 205.18 191.035 204.666C189.946 204.134 188.188 203.663 185.758 203.252C177.675 201.863 173.632 199.053 173.632 194.819C173.632 192.353 174.879 190.296 177.37 188.65C179.884 186.987 183.162 186.156 187.203 186.156C191.518 186.156 194.963 186.987 197.538 188.65C200.136 190.313 201.434 192.472 201.434 195.128H192.356C192.356 194.066 191.936 193.191 191.098 192.507C190.262 191.804 188.952 191.453 187.172 191.453C185.643 191.453 184.459 191.735 183.623 192.301C182.785 192.866 182.365 193.586 182.365 194.46C182.365 195.282 182.837 195.951 183.779 196.465C184.743 196.962 186.356 197.399 188.617 197.777C190.879 198.136 192.785 198.547 194.335 199.01C199.131 200.449 201.529 202.944 201.529 206.491C201.529 209.027 200.199 211.084 197.538 212.661C194.879 214.22 191.444 215 187.235 215C184.387 215 181.852 214.589 179.632 213.767C177.433 212.927 175.706 211.786 174.449 210.347C173.193 208.89 172.565 207.322 172.565 205.642H181.172C181.256 206.962 181.852 207.973 182.963 208.676C184.072 209.379 185.559 209.73 187.423 209.73C189.162 209.73 190.47 209.464 191.349 208.933C192.25 208.385 192.701 207.673 192.701 206.799ZM261.593 196.62C261.593 200.304 260.797 203.534 259.205 206.311C257.614 209.087 255.331 211.229 252.358 212.737C249.405 214.245 246.012 215 242.179 215C238.388 215 235.005 214.254 232.032 212.764C229.059 211.272 226.755 209.147 225.12 206.388C223.487 203.612 222.66 200.424 222.639 196.825V194.974C222.639 191.29 223.446 188.05 225.058 185.256C226.692 182.446 228.985 180.295 231.939 178.804C234.912 177.296 238.305 176.542 242.116 176.542C245.927 176.542 249.31 177.296 252.263 178.804C255.236 180.295 257.531 182.446 259.142 185.256C260.777 188.05 261.593 191.281 261.593 194.949V196.62ZM252.044 194.922C252.044 190.997 251.185 188.017 249.467 185.977C247.75 183.938 245.299 182.917 242.116 182.917C238.954 182.917 236.514 183.929 234.797 185.951C233.08 187.956 232.21 190.903 232.19 194.794V196.62C232.19 200.442 233.048 203.406 234.765 205.515C236.482 207.622 238.954 208.676 242.179 208.676C245.342 208.676 247.77 207.664 249.467 205.642C251.163 203.603 252.022 200.638 252.044 196.747V194.922ZM286.945 193.637C285.709 193.501 284.62 193.432 283.678 193.432C280.243 193.432 277.992 194.383 276.924 196.285V214.486H267.845V186.67H276.422L276.673 189.987C278.494 187.434 281.019 186.156 284.243 186.156C285.248 186.156 286.192 186.268 287.071 186.491L286.945 193.637ZM289.301 200.373C289.301 196.037 290.484 192.583 292.85 190.012C295.239 187.442 298.495 186.156 302.621 186.156C305.929 186.156 308.662 187.168 310.82 189.19V175H319.93V214.486H311.73L311.291 211.529C309.03 213.843 306.118 215 302.558 215C298.558 215 295.343 213.715 292.913 211.144C290.505 208.556 289.301 204.966 289.301 200.373ZM298.38 200.913C298.38 203.518 298.935 205.515 300.044 206.902C301.155 208.29 302.768 208.984 304.883 208.984C307.689 208.984 309.669 208.017 310.82 206.08V195.103C309.688 193.166 307.731 192.197 304.946 192.197C300.568 192.197 298.38 195.103 298.38 200.913ZM342.612 215C337.628 215 333.564 213.749 330.423 211.247C327.301 208.745 325.742 205.412 325.742 201.246V200.527C325.742 197.734 326.402 195.239 327.721 193.046C329.04 190.836 330.904 189.139 333.312 187.956C335.742 186.757 338.507 186.156 341.606 186.156C346.255 186.156 349.91 187.356 352.571 189.755C355.251 192.155 356.592 195.557 356.592 199.961V202.995H334.947C335.239 204.811 336.119 206.268 337.585 207.365C339.072 208.462 340.947 209.011 343.208 209.011C346.705 209.011 349.44 207.973 351.408 205.899L355.869 209.987C354.507 211.564 352.664 212.798 350.339 213.689C348.015 214.563 345.438 215 342.612 215ZM341.575 192.172C339.774 192.172 338.308 192.668 337.177 193.662C336.067 194.657 335.354 196.079 335.04 197.931H347.669V197.339C347.627 195.694 347.082 194.426 346.036 193.535C344.988 192.626 343.502 192.172 341.575 192.172ZM380.874 193.637C379.638 193.501 378.549 193.432 377.607 193.432C374.173 193.432 371.921 194.383 370.853 196.285V214.486H361.774V186.67H370.351L370.602 189.987C372.423 187.434 374.948 186.156 378.172 186.156C379.179 186.156 380.121 186.268 381 186.491L380.874 193.637Z" fill="white"/>
<defs>
<filter id="filter0_dd" x="35.6294" y="20.8334" width="119.388" height="90.2806" filterUnits="userSpaceOnUse" color-interpolation-filters="sRGB">
<feFlood flood-opacity="0" result="BackgroundImageFix"/>
<feColorMatrix in="SourceAlpha" type="matrix" values="0 0 0 0 0 0 0 0 0 0 0 0 0 0 0 0 0 0 127 0"/>
<feOffset dy="4"/>
<feGaussianBlur stdDeviation="2"/>
<feColorMatrix type="matrix" values="0 0 0 0 0 0 0 0 0 0 0 0 0 0 0 0 0 0 0.25 0"/>
<feBlend mode="normal" in2="BackgroundImageFix" result="effect1_dropShadow"/>
<feColorMatrix in="SourceAlpha" type="matrix" values="0 0 0 0 0 0 0 0 0 0 0 0 0 0 0 0 0 0 127 0"/>
<feOffset dy="4"/>
<feGaussianBlur stdDeviation="2"/>
<feColorMatrix type="matrix" values="0 0 0 0 0 0 0 0 0 0 0 0 0 0 0 0 0 0 0.25 0"/>
<feBlend mode="normal" in2="effect1_dropShadow" result="effect2_dropShadow"/>
<feBlend mode="normal" in="SourceGraphic" in2="effect2_dropShadow" result="shape"/>
</filter>
<filter id="filter1_dd" x="28" y="36.261" width="99.5518" height="127.564" filterUnits="userSpaceOnUse" color-interpolation-filters="sRGB">
<feFlood flood-opacity="0" result="BackgroundImageFix"/>
<feColorMatrix in="SourceAlpha" type="matrix" values="0 0 0 0 0 0 0 0 0 0 0 0 0 0 0 0 0 0 127 0"/>
<feOffset dy="4"/>
<feGaussianBlur stdDeviation="2"/>
<feColorMatrix type="matrix" values="0 0 0 0 0 0 0 0 0 0 0 0 0 0 0 0 0 0 0.25 0"/>
<feBlend mode="normal" in2="BackgroundImageFix" result="effect1_dropShadow"/>
<feColorMatrix in="SourceAlpha" type="matrix" values="0 0 0 0 0 0 0 0 0 0 0 0 0 0 0 0 0 0 127 0"/>
<feOffset dy="4"/>
<feGaussianBlur stdDeviation="2"/>
<feColorMatrix type="matrix" values="0 0 0 0 0 0 0 0 0 0 0 0 0 0 0 0 0 0 0.25 0"/>
<feBlend mode="normal" in2="effect1_dropShadow" result="effect2_dropShadow"/>
<feBlend mode="normal" in="SourceGraphic" in2="effect2_dropShadow" result="shape"/>
</filter>
</defs>
</svg>
